<svg width="25" height="21" viewBox="0 0 25 21" fill="none" xmlns="http://www.w3.org/2000/svg">
<g clip-path="url(#clip0_1280_251)">
<path d="M6.89583 9.44125C8.39583 11.9175 10.8125 13.9387 13.7604 15.2075L16.0521 13.2825C16.3333 13.0463 16.75 12.9675 17.1146 13.0725C18.2812 13.3962 19.5417 13.5712 20.8333 13.5712C21.4062 13.5712 21.875 13.965 21.875 14.4462V17.5C21.875 17.9812 21.4062 18.375 20.8333 18.375C11.0521 18.375 3.125 11.7163 3.125 3.5C3.125 3.01875 3.59375 2.625 4.16667 2.625H7.8125C8.38542 2.625 8.85417 3.01875 8.85417 3.5C8.85417 4.59375 9.0625 5.64375 9.44792 6.62375C9.5625 6.93 9.47917 7.27125 9.1875 7.51625L6.89583 9.44125Z" fill="white"/>
</g>
<defs>
<clipPath id="clip0_1280_251">
<rect width="25" height="21" fill="white"/>
</clipPath>
</defs>
</svg>
