<svg width="30" height="30" viewBox="0 0 30 30" fill="none" xmlns="http://www.w3.org/2000/svg">
<path d="M29.5536 6.17122C28.5099 6.63372 27.3886 6.94622 26.2099 7.08747C27.4261 6.35971 28.3361 5.21431 28.7699 3.86497C27.6272 4.54371 26.3766 5.02147 25.0724 5.27747C24.1954 4.34106 23.0337 3.72038 21.7678 3.51182C20.5019 3.30325 19.2025 3.51846 18.0714 4.12404C16.9404 4.72962 16.0409 5.69168 15.5126 6.86085C14.9843 8.03003 14.8568 9.34091 15.1499 10.59C12.8345 10.4737 10.5694 9.87191 8.50167 8.82361C6.43392 7.7753 4.60969 6.30393 3.14739 4.50497C2.64739 5.36747 2.35989 6.36747 2.35989 7.43247C2.35933 8.39122 2.59543 9.33528 3.04724 10.1809C3.49905 11.0265 4.15259 11.7475 4.94989 12.28C4.02524 12.2506 3.12098 12.0007 2.31239 11.5512V11.6262C2.3123 12.9709 2.77743 14.2742 3.62887 15.315C4.48031 16.3557 5.66561 17.0699 6.98364 17.3362C6.12587 17.5684 5.22656 17.6026 4.35364 17.4362C4.72551 18.5932 5.44989 19.605 6.42535 20.3299C7.40082 21.0548 8.57854 21.4564 9.79364 21.4787C7.73093 23.098 5.1835 23.9763 2.56114 23.9725C2.09662 23.9726 1.63249 23.9455 1.17114 23.8912C3.83299 25.6027 6.93157 26.511 10.0961 26.5075C20.8086 26.5075 26.6649 17.635 26.6649 9.93997C26.6649 9.68997 26.6586 9.43747 26.6474 9.18747C27.7865 8.36369 28.7698 7.34359 29.5511 6.17497L29.5536 6.17122Z" fill="#E0E0E0"/>
</svg>
