<svg width="28" height="28" viewBox="0 0 28 28" fill="none" xmlns="http://www.w3.org/2000/svg">
<path d="M21 19.8333H18.6667C18.3361 19.8333 18.0589 19.7213 17.8349 19.4973C17.6109 19.2733 17.4992 18.9964 17.5 18.6667C17.5 18.3361 17.612 18.0588 17.836 17.8348C18.06 17.6108 18.3369 17.4992 18.6667 17.5H21V15.1667C21 14.8361 21.112 14.5588 21.336 14.3348C21.56 14.1108 21.8369 13.9992 22.1667 14C22.4972 14 22.7745 14.112 22.9985 14.336C23.2225 14.56 23.3341 14.8369 23.3334 15.1667V17.5H25.6667C25.9972 17.5 26.2745 17.612 26.4985 17.836C26.7225 18.06 26.8341 18.3369 26.8334 18.6667C26.8334 18.9972 26.7214 19.2745 26.4974 19.4985C26.2734 19.7225 25.9965 19.8341 25.6667 19.8333H23.3334V22.1667C23.3334 22.4972 23.2214 22.7745 22.9974 22.9985C22.7734 23.2225 22.4965 23.3341 22.1667 23.3333C21.8361 23.3333 21.5589 23.2213 21.3349 22.9973C21.1109 22.7733 20.9992 22.4964 21 22.1667V19.8333ZM3.50002 24.5C2.85836 24.5 2.30886 24.2713 1.85152 23.814C1.39419 23.3567 1.16591 22.8076 1.16669 22.1667V5.83334C1.16669 5.19167 1.39536 4.64217 1.85269 4.18484C2.31002 3.7275 2.85913 3.49922 3.50002 3.5H19.8334C20.475 3.5 21.0245 3.72867 21.4819 4.186C21.9392 4.64334 22.1675 5.19245 22.1667 5.83334V10.5C22.1667 10.8306 22.0547 11.1078 21.8307 11.3318C21.6067 11.5558 21.3298 11.6674 21 11.6667C20.6695 11.6667 20.3922 11.5547 20.1682 11.3307C19.9442 11.1067 19.8326 10.8298 19.8334 10.5V9.33334H3.50002V22.1667H17.5C17.8306 22.1667 18.1079 22.2787 18.3319 22.5027C18.5559 22.7267 18.6675 23.0036 18.6667 23.3333C18.6667 23.6639 18.5547 23.9412 18.3307 24.1652C18.1067 24.3892 17.8298 24.5008 17.5 24.5H3.50002Z" fill="white"/>
</svg>
