<svg width="31" height="31" viewBox="0 0 31 31" fill="none" xmlns="http://www.w3.org/2000/svg">
<path d="M25.3167 27.125L17.1792 18.9875C16.5333 19.5042 15.7906 19.9132 14.951 20.2146C14.1115 20.516 13.2181 20.6667 12.2708 20.6667C9.92431 20.6667 7.93858 19.8538 6.31367 18.228C4.68875 16.6022 3.87586 14.6165 3.875 12.2708C3.875 9.92431 4.68789 7.93858 6.31367 6.31367C7.93944 4.68875 9.92517 3.87586 12.2708 3.875C14.6174 3.875 16.6031 4.68789 18.228 6.31367C19.8529 7.93944 20.6658 9.92517 20.6667 12.2708C20.6667 13.2181 20.516 14.1115 20.2146 14.951C19.9132 15.7906 19.5042 16.5333 18.9875 17.1792L27.125 25.3167L25.3167 27.125ZM12.2708 18.0833C13.8854 18.0833 15.258 17.518 16.3887 16.3874C17.5193 15.2567 18.0842 13.8846 18.0833 12.2708C18.0833 10.6562 17.518 9.28364 16.3874 8.153C15.2567 7.02236 13.8846 6.45747 12.2708 6.45833C10.6562 6.45833 9.28364 7.02365 8.153 8.15429C7.02236 9.28493 6.45747 10.6571 6.45833 12.2708C6.45833 13.8854 7.02365 15.258 8.15429 16.3887C9.28493 17.5193 10.6571 18.0842 12.2708 18.0833Z" fill="black"/>
</svg>
