<svg width="100" height="100" viewBox="0 0 100 100" fill="none" xmlns="http://www.w3.org/2000/svg">
<path d="M54.2832 8.3374C57.3238 8.32573 60.3643 8.35629 63.404 8.42907L64.2124 8.45824C65.1457 8.49157 66.0665 8.53324 67.179 8.58324C71.6124 8.79157 74.6374 9.49157 77.2915 10.5207C80.0415 11.5791 82.3582 13.0124 84.6749 15.3291C86.7931 17.4108 88.4325 19.9288 89.479 22.7082C90.5082 25.3624 91.2082 28.3916 91.4165 32.8249C91.4666 33.9332 91.5082 34.8582 91.5415 35.7916L91.5666 36.5999C91.6406 39.6382 91.6725 42.6774 91.6624 45.7166L91.6665 48.8249V54.2832C91.6768 57.3238 91.6449 60.3644 91.5707 63.4041L91.5457 64.2124C91.5124 65.1457 91.4707 66.0666 91.4207 67.1791C91.2124 71.6124 90.5041 74.6374 89.479 77.2916C88.4359 80.0739 86.7961 82.5941 84.6749 84.6749C82.5914 86.7929 80.072 88.4322 77.2915 89.4791C74.6374 90.5082 71.6124 91.2082 67.179 91.4166C66.0665 91.4666 65.1457 91.5082 64.2124 91.5416L63.404 91.5666C60.3644 91.6406 57.3238 91.6726 54.2832 91.6624L51.1749 91.6666H45.7207C42.6801 91.6768 39.6396 91.6449 36.5999 91.5707L35.7915 91.5457C34.8024 91.5099 33.8135 91.4682 32.8249 91.4207C28.3915 91.2124 25.3665 90.5041 22.7082 89.4791C19.9277 88.4347 17.4092 86.795 15.329 84.6749C13.2084 82.5928 11.5675 80.0731 10.5207 77.2916C9.49155 74.6374 8.79155 71.6124 8.58321 67.1791C8.53681 66.1904 8.49514 65.2015 8.45821 64.2124L8.43738 63.4041C8.36056 60.3644 8.32584 57.3238 8.33321 54.2832V45.7166C8.32159 42.6774 8.35214 39.6382 8.42488 36.5999L8.45405 35.7916C8.48738 34.8582 8.52905 33.9332 8.57905 32.8249C8.78738 28.3874 9.48738 25.3666 10.5165 22.7082C11.5639 19.9275 13.2081 17.4101 15.3332 15.3332C17.4119 13.2114 19.9289 11.569 22.7082 10.5207C25.3665 9.49157 28.3874 8.79157 32.8249 8.58324L35.7915 8.45824L36.5999 8.4374C39.6381 8.36062 42.6773 8.3259 45.7165 8.33324L54.2832 8.3374ZM49.9999 29.1707C47.2395 29.1317 44.4989 29.6417 41.9373 30.671C39.3757 31.7004 37.0442 33.2286 35.0784 35.1668C33.1126 37.105 31.5515 39.4146 30.4861 41.9614C29.4206 44.5082 28.8719 47.2413 28.8719 50.002C28.8719 52.7626 29.4206 55.4958 30.4861 58.0426C31.5515 60.5893 33.1126 62.8989 35.0784 64.8372C37.0442 66.7754 39.3757 68.3036 41.9373 69.333C44.4989 70.3623 47.2395 70.8723 49.9999 70.8332C55.5252 70.8332 60.8243 68.6383 64.7313 64.7313C68.6383 60.8243 70.8332 55.5252 70.8332 49.9999C70.8332 44.4746 68.6383 39.1755 64.7313 35.2685C60.8243 31.3615 55.5252 29.1707 49.9999 29.1707ZM49.9999 37.5041C51.6603 37.4735 53.3102 37.7741 54.8532 38.3883C56.3962 39.0025 57.8013 39.918 58.9865 41.0813C60.1716 42.2447 61.1131 43.6325 61.7559 45.1638C62.3987 46.6951 62.7299 48.3391 62.7302 49.9999C62.7304 51.6606 62.3998 53.3047 61.7575 54.8362C61.1152 56.3677 60.1742 57.7559 58.9894 58.9196C57.8046 60.0834 56.3998 60.9994 54.8571 61.6141C53.3143 62.2288 51.6645 62.5299 50.004 62.4999C46.6888 62.4999 43.5094 61.1829 41.1652 58.8387C38.821 56.4945 37.504 53.3151 37.504 49.9999C37.504 46.6847 38.821 43.5053 41.1652 41.1611C43.5094 38.8169 46.6888 37.4999 50.004 37.4999L49.9999 37.5041ZM71.8749 22.9207C70.5307 22.9745 69.2594 23.5464 68.3274 24.5164C67.3954 25.4865 66.8748 26.7796 66.8748 28.1249C66.8748 29.4702 67.3954 30.7633 68.3274 31.7334C69.2594 32.7034 70.5307 33.2753 71.8749 33.3291C73.2562 33.3291 74.581 32.7803 75.5577 31.8036C76.5345 30.8268 77.0832 29.5021 77.0832 28.1207C77.0832 26.7394 76.5345 25.4146 75.5577 24.4379C74.581 23.4611 73.2562 22.9124 71.8749 22.9124V22.9207Z" fill="black"/>
</svg>
