<svg width="26" height="26" viewBox="0 0 26 26" fill="none" xmlns="http://www.w3.org/2000/svg">
<path fill-rule="evenodd" clip-rule="evenodd" d="M6.50004 2.1665C5.92541 2.1665 5.3743 2.39478 4.96798 2.80111C4.56165 3.20743 4.33337 3.75853 4.33337 4.33317V21.6665C4.33337 22.2411 4.56165 22.7922 4.96798 23.1986C5.3743 23.6049 5.92541 23.8332 6.50004 23.8332H19.5C20.0747 23.8332 20.6258 23.6049 21.0321 23.1986C21.4384 22.7922 21.6667 22.2411 21.6667 21.6665V6.94834C21.6666 6.37375 21.4382 5.82274 21.0319 5.4165L18.4167 2.80134C18.0105 2.39498 17.4595 2.16663 16.8849 2.1665H6.50004ZM6.50004 4.33317H16.8849L19.5 6.94834V21.6665H6.50004V4.33317ZM17.5912 11.6923C17.6947 11.5923 17.7772 11.4728 17.834 11.3406C17.8908 11.2084 17.9206 11.0663 17.9219 10.9224C17.9231 10.7786 17.8957 10.6359 17.8413 10.5028C17.7868 10.3697 17.7064 10.2487 17.6046 10.147C17.5029 10.0453 17.382 9.96483 17.2488 9.91036C17.1157 9.85589 16.973 9.82848 16.8292 9.82973C16.6853 9.83098 16.5432 9.86087 16.411 9.91764C16.2788 9.97442 16.1593 10.057 16.0594 10.1604L11.4639 14.7559L9.93096 13.2241C9.72664 13.0267 9.45299 12.9176 9.16894 12.92C8.88489 12.9225 8.61318 13.0364 8.41232 13.2373C8.21146 13.4381 8.09753 13.7099 8.09506 13.9939C8.09259 14.2779 8.20179 14.5516 8.39912 14.7559L10.62 16.9778C10.7306 17.0886 10.862 17.1764 11.0066 17.2363C11.1512 17.2962 11.3063 17.3271 11.4628 17.3271C11.6193 17.3271 11.7743 17.2962 11.919 17.2363C12.0636 17.1764 12.195 17.0886 12.3056 16.9778L17.5912 11.6923Z" fill="#192656"/>
</svg>
